<svg xmlns="http://www.w3.org/2000/svg" viewBox="0 0 1024 1024" role="img" aria-label="Room Chores app icon">
  <defs>
    <linearGradient id="bg" x1="112" y1="80" x2="912" y2="944" gradientUnits="userSpaceOnUse">
      <stop offset="0" stop-color="#101820"/>
      <stop offset="1" stop-color="#18212B"/>
    </linearGradient>
    <filter id="shadow" x="-20%" y="-20%" width="140%" height="140%">
      <feDropShadow dx="0" dy="24" stdDeviation="30" flood-color="#000000" flood-opacity=".32"/>
    </filter>
  </defs>
  <rect width="1024" height="1024" rx="216" fill="url(#bg)"/>
  <path d="M214 418 512 178l298 240v364a64 64 0 0 1-64 64H278a64 64 0 0 1-64-64V418Z" fill="#F7F8FA" filter="url(#shadow)"/>
  <path d="M512 178 810 418v80L512 258 214 498v-80l298-240Z" fill="#D9474F"/>
  <rect x="308" y="542" width="408" height="56" rx="28" fill="#14202A"/>
  <rect x="308" y="648" width="282" height="56" rx="28" fill="#14202A"/>
  <circle cx="238" cy="244" r="34" fill="#D9474F"/>
  <circle cx="320" cy="244" r="34" fill="#2F80ED"/>
  <circle cx="402" cy="244" r="34" fill="#27AE60"/>
  <path d="m678 664 48 48 112-132" fill="none" stroke="#2F80ED" stroke-width="54" stroke-linecap="round" stroke-linejoin="round"/>
</svg>
