<svg xmlns="http://www.w3.org/2000/svg" width="1200" height="760" viewBox="0 0 1200 760">
  <defs>
    <filter id="softShadow" x="-20%" y="-20%" width="140%" height="150%">
      <feDropShadow dx="0" dy="16" stdDeviation="18" flood-color="#0f172a" flood-opacity="0.10"/>
    </filter>
    <marker id="arrow" markerWidth="10" markerHeight="10" refX="8" refY="5" orient="auto"><path d="M0,0 L10,5 L0,10 Z" fill="#94a3b8"/></marker>
  </defs>
  <rect width="1200" height="760" rx="34" fill="#f8fafc"/>
  <rect x="48" y="52" width="1104" height="656" rx="34" fill="#ffffff" stroke="#dbe5f0" stroke-width="2"/>
  <text x="82" y="112" font-family="Inter, Arial, sans-serif" font-size="19" font-weight="800" letter-spacing="3" fill="#64748b">C4 CONTAINER MAP</text>
  <text x="82" y="158" font-family="Inter, Arial, sans-serif" font-size="40" font-weight="850" fill="#0f172a">AI Workflow Portfolio</text>
  <text x="82" y="194" font-family="Inter, Arial, sans-serif" font-size="21" font-weight="650" fill="#64748b">Command surface → adapter → durable truth → review surface</text>

  <rect x="82" y="236" width="1036" height="410" rx="28" fill="#f8fafc" stroke="#dbe5f0" stroke-width="2"/>
  <text x="110" y="282" font-family="Inter, Arial, sans-serif" font-size="16" font-weight="800" letter-spacing="2.4" fill="#64748b">PROSPECT ID WORKFLOW SYSTEM</text>

  <path d="M326 398 H421" stroke="#94a3b8" stroke-width="4" stroke-dasharray="3 13" stroke-linecap="round" marker-end="url(#arrow)"/>
  <path d="M578 398 H694" stroke="#94a3b8" stroke-width="4" stroke-dasharray="3 13" stroke-linecap="round" marker-end="url(#arrow)"/>
  <path d="M500 474 V510" stroke="#94a3b8" stroke-width="4" stroke-dasharray="3 13" stroke-linecap="round" marker-end="url(#arrow)"/>
  <path d="M642 566 H820" stroke="#94a3b8" stroke-width="4" stroke-dasharray="3 13" stroke-linecap="round" marker-end="url(#arrow)"/>

  <g filter="url(#softShadow)">
    <rect x="130" y="320" width="198" height="156" rx="24" fill="#eff6ff" stroke="#2b82de" stroke-width="3"/>
    <rect x="204" y="342" width="50" height="50" rx="15" fill="#2b82de"/>
    <path d="M229 354 v26 M216 367 h26" stroke="#fff" stroke-width="5" stroke-linecap="round"/>
    <text x="229" y="428" text-anchor="middle" font-family="Inter, Arial, sans-serif" font-size="28" font-weight="850" fill="#0f172a">Raycast</text>
    <text x="229" y="458" text-anchor="middle" font-family="Inter, Arial, sans-serif" font-size="16" font-weight="850" letter-spacing="5" fill="#2b82de">COMMANDS</text>
  </g>

  <g filter="url(#softShadow)">
    <rect x="420" y="318" width="160" height="160" rx="34" fill="#fff7ed" stroke="#f59e0b" stroke-width="4" transform="rotate(45 500 398)"/>
    <circle cx="500" cy="358" r="26" fill="#fef3c7"/>
    <path d="M510 331 L487 370 h20 l-15 36 35-51 h-21z" fill="#d97706"/>
    <text x="500" y="413" text-anchor="middle" font-family="Inter, Arial, sans-serif" font-size="25" font-weight="850" fill="#0f172a">Local FastAPI</text>
    <text x="500" y="446" text-anchor="middle" font-family="Inter, Arial, sans-serif" font-size="15" font-weight="850" letter-spacing="5" fill="#d97706">BRIDGE</text>
  </g>

  <g filter="url(#softShadow)">
    <rect x="704" y="320" width="234" height="156" rx="24" fill="#fff1f2" stroke="#ef4444" stroke-width="3"/>
    <rect x="796" y="342" width="50" height="50" rx="15" fill="#fee2e2"/>
    <path d="M808 356 h26 M808 368 h26 M808 380 h26" stroke="#dc2626" stroke-width="5" stroke-linecap="round"/>
    <text x="821" y="428" text-anchor="middle" font-family="Inter, Arial, sans-serif" font-size="26" font-weight="850" fill="#0f172a">Legacy Laravel</text>
    <text x="821" y="458" text-anchor="middle" font-family="Inter, Arial, sans-serif" font-size="15" font-weight="850" letter-spacing="5" fill="#ef4444">DASHBOARD</text>
  </g>

  <g filter="url(#softShadow)">
    <circle cx="500" cy="566" r="64" fill="#f0fdf4" stroke="#22c55e" stroke-width="4"/>
    <path d="M476 533 c0-11 48-11 48 0 v37 c0 11-48 11-48 0z M476 533 c0 11 48 11 48 0 M476 552 c0 11 48 11 48 0" fill="none" stroke="#16a34a" stroke-width="5"/>
    <text x="500" y="586" text-anchor="middle" font-family="Inter, Arial, sans-serif" font-size="22" font-weight="850" fill="#0f172a">Supabase</text>
    <text x="500" y="612" text-anchor="middle" font-family="Inter, Arial, sans-serif" font-size="12" font-weight="850" letter-spacing="3" fill="#16a34a">POSTGRESQL</text>
  </g>

  <g filter="url(#softShadow)">
    <rect x="830" y="510" width="164" height="112" rx="22" fill="#eff6ff" stroke="#0284c7" stroke-width="3"/>
    <path d="M912 530 L934 575 H890z" fill="#0f172a"/>
    <text x="912" y="601" text-anchor="middle" font-family="Inter, Arial, sans-serif" font-size="20" font-weight="850" fill="#0f172a">Prospect Web</text>
  </g>
</svg>
