<svg xmlns="http://www.w3.org/2000/svg" width="1200" height="760" viewBox="0 0 1200 760">
  <defs>
    <filter id="softShadow" x="-20%" y="-20%" width="140%" height="150%"><feDropShadow dx="0" dy="16" stdDeviation="18" flood-color="#0f172a" flood-opacity="0.10"/></filter>
    <marker id="arrow" markerWidth="10" markerHeight="10" refX="8" refY="5" orient="auto"><path d="M0,0 L10,5 L0,10 Z" fill="#94a3b8"/></marker>
  </defs>
  <rect width="1200" height="760" rx="34" fill="#f8fafc"/>
  <rect x="48" y="52" width="1104" height="656" rx="34" fill="#ffffff" stroke="#dbe5f0" stroke-width="2"/>
  <text x="82" y="112" font-family="Inter, Arial, sans-serif" font-size="19" font-weight="800" letter-spacing="3" fill="#64748b">C4 BUCKET MAP</text>
  <text x="82" y="162" font-family="Inter, Arial, sans-serif" font-size="42" font-weight="850" fill="#0f172a">Scouting Coordinator System Map</text>

  <path d="M332 310 H487" stroke="#94a3b8" stroke-width="4" stroke-dasharray="3 13" stroke-linecap="round" marker-end="url(#arrow)"/>
  <path d="M713 310 H868" stroke="#94a3b8" stroke-width="4" stroke-dasharray="3 13" stroke-linecap="round" marker-end="url(#arrow)"/>
  <path d="M976 396 C926 494 822 548 707 548" stroke="#94a3b8" stroke-width="4" stroke-dasharray="3 13" stroke-linecap="round" marker-end="url(#arrow)" fill="none"/>
  <path d="M493 548 C378 548 274 494 224 396" stroke="#94a3b8" stroke-width="4" stroke-dasharray="3 13" stroke-linecap="round" marker-end="url(#arrow)" fill="none"/>

  <g filter="url(#softShadow)">
    <rect x="92" y="232" width="240" height="156" rx="24" fill="#eff6ff" stroke="#2b82de" stroke-width="3"/>
    <circle cx="136" cy="276" r="24" fill="#2b82de"/><text x="136" y="285" text-anchor="middle" font-family="Inter, Arial, sans-serif" font-size="24" font-weight="900" fill="#fff">1</text>
    <path d="M198 258 v20 M184 268 h28 M184 288 h28" stroke="#2b82de" stroke-width="5" stroke-linecap="round"/>
    <text x="136" y="338" font-family="Inter, Arial, sans-serif" font-size="26" font-weight="850" fill="#0f172a">Meetings</text>
    <text x="136" y="367" font-family="Inter, Arial, sans-serif" font-size="19" font-weight="800" fill="#64748b">&amp; Scheduling</text>
  </g>

  <g filter="url(#softShadow)">
    <rect x="480" y="232" width="240" height="156" rx="24" fill="#eef2ff" stroke="#6366f1" stroke-width="3"/>
    <circle cx="524" cy="276" r="24" fill="#6366f1"/><text x="524" y="285" text-anchor="middle" font-family="Inter, Arial, sans-serif" font-size="24" font-weight="900" fill="#fff">2</text>
    <path d="M574 260 h54 M574 284 h54 M574 308 h38" stroke="#6366f1" stroke-width="6" stroke-linecap="round"/>
    <text x="524" y="338" font-family="Inter, Arial, sans-serif" font-size="26" font-weight="850" fill="#0f172a">Pre-Meeting</text>
    <text x="524" y="367" font-family="Inter, Arial, sans-serif" font-size="19" font-weight="800" fill="#64748b">Work</text>
  </g>

  <g filter="url(#softShadow)">
    <rect x="868" y="232" width="240" height="156" rx="24" fill="#f0fdf4" stroke="#22c55e" stroke-width="3"/>
    <circle cx="912" cy="276" r="24" fill="#22c55e"/><text x="912" y="285" text-anchor="middle" font-family="Inter, Arial, sans-serif" font-size="24" font-weight="900" fill="#fff">3</text>
    <path d="M962 260 h72 a12 12 0 0 1 12 12 v22 a12 12 0 0 1-12 12 h-38 l-20 18 v-18 h-14 a12 12 0 0 1-12-12 v-22 a12 12 0 0 1 12-12z" fill="none" stroke="#16a34a" stroke-width="5"/>
    <text x="912" y="338" font-family="Inter, Arial, sans-serif" font-size="26" font-weight="850" fill="#0f172a">Client</text>
    <text x="912" y="367" font-family="Inter, Arial, sans-serif" font-size="19" font-weight="800" fill="#64748b">Communication</text>
  </g>

  <g filter="url(#softShadow)">
    <rect x="480" y="470" width="240" height="156" rx="24" fill="#ecfdf5" stroke="#10b981" stroke-width="3"/>
    <circle cx="524" cy="514" r="24" fill="#10b981"/><text x="524" y="523" text-anchor="middle" font-family="Inter, Arial, sans-serif" font-size="24" font-weight="900" fill="#fff">4</text>
    <path d="M576 560 v-40 M602 560 v-64 M628 560 v-28" stroke="#059669" stroke-width="8" stroke-linecap="round"/>
    <text x="524" y="576" font-family="Inter, Arial, sans-serif" font-size="25" font-weight="850" fill="#0f172a">Lifecycle</text>
    <text x="524" y="605" font-family="Inter, Arial, sans-serif" font-size="19" font-weight="800" fill="#64748b">&amp; Reporting</text>
  </g>

  <g filter="url(#softShadow)">
    <rect x="92" y="470" width="240" height="156" rx="24" fill="#fffbeb" stroke="#f59e0b" stroke-width="3"/>
    <circle cx="136" cy="514" r="24" fill="#f59e0b"/><text x="136" y="523" text-anchor="middle" font-family="Inter, Arial, sans-serif" font-size="24" font-weight="900" fill="#fff">5</text>
    <path d="M198 500 l12 28 31 3-24 20 7 30-26-16-26 16 7-30-24-20 31-3z" fill="#d97706"/>
    <text x="136" y="576" font-family="Inter, Arial, sans-serif" font-size="25" font-weight="850" fill="#0f172a">Outcomes</text>
    <text x="136" y="605" font-family="Inter, Arial, sans-serif" font-size="19" font-weight="800" fill="#64748b">&amp; Enrollments</text>
  </g>

  <g filter="url(#softShadow)">
    <rect x="806" y="470" width="302" height="156" rx="24" fill="#fff7ed" stroke="#f97316" stroke-width="3"/>
    <circle cx="850" cy="514" r="24" fill="#f97316"/>
    <path d="M840 514 h20 M850 504 v20" stroke="#fff" stroke-width="5" stroke-linecap="round"/>
    <text x="894" y="535" font-family="Inter, Arial, sans-serif" font-size="28" font-weight="850" fill="#0f172a">Scouting</text>
    <text x="894" y="570" font-family="Inter, Arial, sans-serif" font-size="28" font-weight="850" fill="#0f172a">Coordinator</text>
  </g>
</svg>
